<svg width="202" height="26" viewBox="0 0 202 26" fill="none" xmlns="http://www.w3.org/2000/svg">
<g clip-path="url(#clip0_581_73)">
<path d="M188.998 0.209909C186.488 0.203429 184.033 0.940943 181.941 2.32926C179.85 3.71758 178.217 5.69445 177.249 8.01023C176.28 10.326 176.02 12.8768 176.5 15.3406C176.981 17.8043 178.181 20.0703 179.948 21.8526C181.716 23.6349 183.972 24.8535 186.431 25.3544C188.891 25.8553 191.444 25.6162 193.767 24.6671C196.091 23.718 198.082 22.1017 199.487 20.0221C200.893 17.9425 201.651 15.493 201.665 12.9829C201.693 11.3068 201.386 9.64201 200.76 8.08665C200.135 6.53129 199.205 5.11679 198.024 3.92649C196.844 2.73619 195.437 1.79415 193.887 1.15586C192.337 0.517575 190.675 0.195933 188.998 0.209909ZM189.733 22.6759C184.379 22.6759 180.145 17.3569 180.145 11.7929C180.145 6.89292 183.679 3.14991 188.228 3.14991C193.546 3.14991 197.851 8.50391 197.851 14.0679C197.851 18.9319 194.282 22.6759 189.733 22.6759Z" fill="white"/>
<path d="M4.09514 12.7032C4.09514 6.54417 8.04914 2.76518 12.4231 2.76518C15.8871 2.76518 18.7922 4.93518 20.2612 8.64418H20.5061V1.33018C18.0439 0.58814 15.4837 0.222324 12.9122 0.245162C11.2244 0.208539 9.54635 0.510444 7.97716 1.13304C6.40797 1.75564 4.97943 2.68632 3.77586 3.87013C2.57229 5.05394 1.61807 6.46686 0.969588 8.02553C0.321102 9.58419 -0.00851223 11.257 0.000167048 12.9452C0.000167048 20.2232 5.14416 25.6122 12.6332 25.6122C15.4395 25.6545 18.2325 25.2165 20.8912 24.3172V22.1822C18.6331 22.6259 16.3338 22.8254 14.0331 22.7772C7.90913 22.7802 4.09514 17.3572 4.09514 12.7032Z" fill="white"/>
<path d="M107.639 8.04886C107.639 3.49986 104.07 0.629883 98.7515 0.629883H87.0635V25.1989H91.0175V15.3659C94.5865 15.7159 95.9174 17.6059 99.4504 20.5099C102.285 22.8539 104.909 25.2689 110.05 25.2689H111.17L99.4474 15.6459C103.37 15.5719 107.639 13.0179 107.639 8.04886ZM98.8915 12.8429H91.0175V3.53488H97.8415C101.55 3.53488 103.755 5.42486 103.755 8.60886C103.755 11.6179 101.516 12.8429 98.8915 12.8429Z" fill="white"/>
<path d="M126.291 0L113.904 25.2H117.053L118.208 22.785C119.708 19.671 122.827 19.041 126.291 19.041C129.511 19.041 132.135 20.126 133.5 22.365L134.9 25.2H139.239L126.432 0H126.291ZM121.182 16.587L125.766 6.96399L130.595 16.587H121.182Z" fill="white"/>
<path d="M164.712 17.917C158.863 11.5367 152.598 5.55122 145.956 0H145.815V25.2H148.86V7.41901L167.546 26H167.756V0.626007H164.711L164.712 17.917Z" fill="white"/>
<path d="M77.7899 8.04886C77.7899 3.49986 74.2209 0.629883 68.9019 0.629883H57.2139V25.1989H61.1678V15.3659C64.7368 15.7159 66.0678 17.6059 69.6018 20.5099C72.4358 22.8539 75.0608 25.2689 80.2018 25.2689H81.3218L69.5988 15.6459C73.5208 15.5719 77.7899 13.0179 77.7899 8.04886ZM69.0418 12.8429H61.1678V3.53488H67.9918C71.7018 3.53488 73.9058 5.42486 73.9058 8.60886C73.9058 11.6179 71.6658 12.8429 69.0418 12.8429Z" fill="white"/>
<path d="M38.8782 0L26.4902 25.2H29.6402L30.7952 22.785C32.2952 19.671 35.4142 19.041 38.8782 19.041C42.0972 19.041 44.7222 20.126 46.0872 22.365L47.4872 25.2H51.8272L39.0192 0H38.8782ZM33.7692 16.587L38.3532 6.96399L43.1822 16.587H33.7692Z" fill="white"/>
</g>
<defs>
<clipPath id="clip0_581_73">
<rect width="201.666" height="26" fill="white"/>
</clipPath>
</defs>
</svg>
